<svg xmlns="http://www.w3.org/2000/svg" version="1.1" xmlns:xlink="http://www.w3.org/1999/xlink" xmlns:svgjs="http://svgjs.dev/svgjs" width="1000" height="1000" viewBox="0 0 1000 1000"><rect width="1000" height="1000" fill="#ffffff"></rect><g transform="matrix(0.7,0,0,0.7,149.57575757575756,304.04993803057846)"><svg viewBox="0 0 396 222" data-background-color="#4d331f" preserveAspectRatio="xMidYMid meet" height="560" width="1000" xmlns="http://www.w3.org/2000/svg" xmlns:xlink="http://www.w3.org/1999/xlink"><defs></defs><g id="tight-bounds" transform="matrix(1,0,0,1,0.2400000000000091,-0.028281139510966113)"><svg viewBox="0 0 395.52 222.05656237111407" height="222.05656237111407" width="395.52"><g><svg viewBox="0 0 397.4975999999999 223.1668451829696" height="222.05656237111407" width="395.52"><g><rect width="397.4975999999999" height="5.225617298985274" x="0" y="124.25237600196519" fill="#000000" opacity="1" stroke-width="0" stroke="transparent" fill-opacity="1" class="rect-o-0" data-fill-palette-color="secondary" rx="1%" id="o-0" data-palette-color="#7c4e29"></rect></g><g transform="matrix(1,0,0,1,0.9887999999999693,143.1576197380847)"><svg viewBox="0 0 395.52 80.00922544488492" height="80.00922544488492" width="395.52"><g><svg viewBox="0 0 395.52 80.00922544488492" height="80.00922544488492" width="395.52"><g><svg viewBox="0 0 395.52 57.94585827078662" height="57.94585827078662" width="395.52"><g transform="matrix(1,0,0,1,0,0)"><svg width="395.52" viewBox="2.5900001525878906 -36.209999084472656 250.44000244140625 36.70000076293945" height="57.94585827078662" data-palette-color="#d9bca9"><path d="M25.05-9.5L25.05-9.5Q25.05-4.79 21.63-2.15 18.21 0.49 12.35 0.49L12.35 0.49Q6.01 0.49 2.59-1.15L2.59-1.15 2.59-5.15Q4.79-4.22 7.37-3.69 9.96-3.15 12.5-3.15L12.5-3.15Q16.65-3.15 18.75-4.72 20.85-6.3 20.85-9.11L20.85-9.11Q20.85-10.96 20.1-12.15 19.36-13.33 17.61-14.33 15.87-15.33 12.3-16.6L12.3-16.6Q7.32-18.38 5.19-20.83 3.05-23.27 3.05-27.2L3.05-27.2Q3.05-31.32 6.15-33.76 9.25-36.21 14.36-36.21L14.36-36.21Q19.68-36.21 24.15-34.25L24.15-34.25 22.85-30.64Q18.43-32.5 14.26-32.5L14.26-32.5Q10.96-32.5 9.11-31.08 7.25-29.66 7.25-27.15L7.25-27.15Q7.25-25.29 7.93-24.11 8.62-22.92 10.24-21.94 11.87-20.95 15.21-19.75L15.21-19.75Q20.83-17.75 22.94-15.45 25.05-13.16 25.05-9.5ZM52.24-3.71L52.24 0 32.35 0 32.35-35.69 52.24-35.69 52.24-32.01 36.5-32.01 36.5-20.51 51.29-20.51 51.29-16.85 36.5-16.85 36.5-3.71 52.24-3.71ZM71.75-14.84L64.3-14.84 64.3 0 60.15 0 60.15-35.69 69.94-35.69Q76.51-35.69 79.65-33.18 82.78-30.66 82.78-25.61L82.78-25.61Q82.78-18.53 75.61-16.04L75.61-16.04 85.3 0 80.39 0 71.75-14.84ZM64.3-32.06L64.3-18.41 69.99-18.41Q74.38-18.41 76.44-20.15 78.49-21.9 78.49-25.39L78.49-25.39Q78.49-28.93 76.4-30.49 74.31-32.06 69.7-32.06L69.7-32.06 64.3-32.06ZM103.29-12.74L111.44-35.69 115.91-35.69 103.04 0 98.94 0 86.15-35.69 90.54-35.69 98.75-12.6Q100.16-8.62 100.99-4.86L100.99-4.86Q101.87-8.81 103.29-12.74L103.29-12.74ZM140.71-3.71L140.71 0 120.82 0 120.82-35.69 140.71-35.69 140.71-32.01 124.97-32.01 124.97-20.51 139.76-20.51 139.76-16.85 124.97-16.85 124.97-3.71 140.71-3.71ZM152.77-15.26L152.77 0 148.62 0 148.62-35.69 168.52-35.69 168.52-32.01 152.77-32.01 152.77-18.95 167.57-18.95 167.57-15.26 152.77-15.26ZM186.02-14.84L178.57-14.84 178.57 0 174.42 0 174.42-35.69 184.21-35.69Q190.78-35.69 193.92-33.18 197.06-30.66 197.06-25.61L197.06-25.61Q197.06-18.53 189.88-16.04L189.88-16.04 199.57 0 194.66 0 186.02-14.84ZM178.57-32.06L178.57-18.41 184.26-18.41Q188.66-18.41 190.71-20.15 192.76-21.9 192.76-25.39L192.76-25.39Q192.76-28.93 190.67-30.49 188.58-32.06 183.97-32.06L183.97-32.06 178.57-32.06ZM225.23-3.71L225.23 0 205.33 0 205.33-35.69 225.23-35.69 225.23-32.01 209.48-32.01 209.48-20.51 224.27-20.51 224.27-16.85 209.48-16.85 209.48-3.71 225.23-3.71ZM253.03-3.71L253.03 0 233.13 0 233.13-35.69 253.03-35.69 253.03-32.01 237.28-32.01 237.28-20.51 252.08-20.51 252.08-16.85 237.28-16.85 237.28-3.71 253.03-3.71Z" opacity="1" transform="matrix(1,0,0,1,0,0)" fill="#000000" class="undefined-text-0" data-fill-palette-color="primary" id="text-0"></path></svg></g></svg></g><g transform="matrix(1,0,0,1,75.54432,71.62548470792085)"><svg viewBox="0 0 244.43135999999998 8.383740736964079" height="8.383740736964079" width="244.43135999999998"><g transform="matrix(1,0,0,1,0,0)"><svg width="244.43135999999998" viewBox="3.5 -36 1078.6700439453125 37" height="8.383740736964079" data-palette-color="#7c4e29"><path d="M34-31.25L10.75-31.25 10.75-19.75 29-19.75 29-16 10.75-16 10.75-3.75 34-3.75 34 0 3.5 0 3.5-35 34-35 34-31.25ZM55.75-30.75L48.25-12.25 63.75-12.25 56.25-30.75 55.75-30.75ZM50.25-35L61.75-35 76 0 68.8 0 65.5-8.5 46.5-8.5 43.2 0 36 0 50.25-35ZM112.5-9.25L112.5-9.25Q112.5-7.1 111.59-5.23 110.7-3.35 108.67-1.98 106.65-0.6 103.42 0.2 100.2 1 95.5 1L95.5 1Q92.84 1 90.32 0.6 87.8 0.2 85.52-0.55 83.25-1.3 81.32-2.38 79.4-3.45 78-4.75L78-4.75 80.5-7.75Q83.34-5.3 87.15-4.03 90.95-2.75 95.5-2.75L95.5-2.75Q100.55-2.75 102.65-4.15 104.75-5.55 104.75-8L104.75-8Q104.75-9.9 103.09-11.2 101.45-12.5 97.5-13.75L97.5-13.75 88-16.75Q83.3-18.25 80.9-20.58 78.5-22.9 78.5-26.5L78.5-26.5Q78.5-28.35 79.37-30.08 80.25-31.8 82.09-33.13 83.95-34.45 86.82-35.23 89.7-36 93.75-36L93.75-36Q96.2-36 98.62-35.6 101.05-35.2 103.27-34.45 105.5-33.7 107.42-32.63 109.34-31.55 110.75-30.25L110.75-30.25 108.25-27.25Q105.4-29.7 101.84-30.98 98.3-32.25 93.75-32.25L93.75-32.25Q90-32.25 88.12-30.95 86.25-29.65 86.25-27.75L86.25-27.75Q86.25-26.7 86.59-25.93 86.95-25.15 87.77-24.48 88.59-23.8 89.95-23.23 91.3-22.65 93.3-22L93.3-22 102.75-19Q107.3-17.55 109.9-15.2 112.5-12.85 112.5-9.25ZM152.24-35L135.99-10.5 135.99 0 128.74 0 128.74-10.5 112.49-35 120.49-35 132.24-17.25 132.49-17.25 144.24-35 152.24-35ZM194.74-32.5L203.24-32.5 211.04-4.75 211.54-4.75 219.99-35 227.24-35 217.49 0 206.74 0 199.24-26.75 198.74-26.75 191.24 0 180.49 0 170.74-35 177.99-35 186.44-4.75 186.94-4.75 194.74-32.5ZM245.49-30.75L237.99-12.25 253.49-12.25 245.99-30.75 245.49-30.75ZM239.99-35L251.49-35 265.74 0 258.54 0 255.24-8.5 236.24-8.5 232.94 0 225.74 0 239.99-35ZM300.98-35L284.73-10.5 284.73 0 277.48 0 277.48-10.5 261.23-35 269.23-35 280.98-17.25 281.23-17.25 292.98-35 300.98-35ZM353.23-35L353.23-31.25 339.73-31.25 339.73 0 332.48 0 332.48-31.25 318.98-31.25 318.98-35 353.23-35ZM372.73-32.5L372.73-32.5Q370.18-32.5 367.95-31.6 365.73-30.7 364.08-28.85 362.43-27 361.45-24.18 360.48-21.35 360.48-17.5L360.48-17.5Q360.48-13.65 361.45-10.83 362.43-8 364.08-6.15 365.73-4.3 367.95-3.4 370.18-2.5 372.73-2.5L372.73-2.5Q375.28-2.5 377.5-3.4 379.73-4.3 381.38-6.15 383.03-8 384-10.83 384.98-13.65 384.98-17.5L384.98-17.5Q384.98-21.35 384-24.18 383.03-27 381.38-28.85 379.73-30.7 377.5-31.6 375.28-32.5 372.73-32.5ZM372.73-36L372.73-36Q377.23-36 380.9-34.8 384.58-33.6 387.2-31.25 389.83-28.9 391.28-25.45 392.73-22 392.73-17.5L392.73-17.5Q392.73-13 391.28-9.55 389.83-6.1 387.2-3.75 384.58-1.4 380.9-0.2 377.23 1 372.73 1L372.73 1Q368.23 1 364.53-0.2 360.83-1.4 358.2-3.75 355.58-6.1 354.15-9.55 352.73-13 352.73-17.5L352.73-17.5Q352.73-22 354.15-25.45 355.58-28.9 358.2-31.25 360.83-33.6 364.53-34.8 368.23-36 372.73-36ZM416.22 0L416.22-35 433.22-35Q437.07-35 439.9-34.33 442.72-33.65 444.57-32.43 446.42-31.2 447.32-29.5 448.22-27.8 448.22-25.75L448.22-25.75Q448.22-23.1 446.72-21.15 445.22-19.2 442.22-18.25L442.22-18.25Q445.97-17.5 448.1-15.33 450.22-13.15 450.22-9.75L450.22-9.75Q450.22-5.25 446.5-2.63 442.77 0 434.72 0L434.72 0 416.22 0ZM434.72-16L423.47-16 423.47-3.75 434.72-3.75Q438.47-3.75 440.47-5.25 442.47-6.75 442.47-9.75L442.47-9.75Q442.47-12.95 440.47-14.48 438.47-16 434.72-16L434.72-16ZM423.47-19.75L433.22-19.75Q440.47-19.75 440.47-25.75L440.47-25.75Q440.47-28.4 438.65-29.83 436.82-31.25 433.22-31.25L433.22-31.25 423.47-31.25 423.47-19.75ZM456.22-35L474.22-35Q477.97-35 480.94-34.18 483.92-33.35 485.97-31.78 488.02-30.2 489.12-27.93 490.22-25.65 490.22-22.75L490.22-22.75Q490.22-18.75 488.22-16 486.22-13.25 482.47-11.8L482.47-11.8 490.72 0 482.47 0 475.12-10.5 474.22-10.5 463.47-10.5 463.47 0 456.22 0 456.22-35ZM474.22-31.25L463.47-31.25 463.47-14.25 474.22-14.25Q478.17-14.25 480.32-16.32 482.47-18.4 482.47-22.75L482.47-22.75Q482.47-27.1 480.32-29.18 478.17-31.25 474.22-31.25L474.22-31.25ZM503.47-35L503.47 0 496.22 0 496.22-35 503.47-35ZM539.21-35L546.46-35 546.46 0 536.96 0 518.21-28.5 517.71-28.5 517.71 0 510.46 0 510.46-35 519.96-35 538.71-6.5 539.21-6.5 539.21-35ZM571.46-36L571.46-36Q576.01-36 580.06-34.45 584.11-32.9 586.96-30.25L586.96-30.25 584.46-27.25Q581.61-29.9 578.49-31.08 575.36-32.25 571.96-32.25L571.96-32.25Q569.41-32.25 567.26-31.38 565.11-30.5 563.54-28.7 561.96-26.9 561.09-24.13 560.21-21.35 560.21-17.5L560.21-17.5Q560.21-13.55 561.11-10.73 562.01-7.9 563.61-6.08 565.21-4.25 567.49-3.38 569.76-2.5 572.46-2.5L572.46-2.5Q574.71-2.5 576.34-2.9 577.96-3.3 579.06-3.85L579.06-3.85Q580.36-4.45 581.21-5.25L581.21-5.25 581.21-14.75 574.71-14.75 574.71-18 588.46-18 588.46-4.25Q586.61-2.75 584.16-1.6L584.16-1.6Q582.06-0.6 578.99 0.2 575.91 1 571.96 1L571.96 1Q567.46 1 563.86-0.2 560.26-1.4 557.71-3.75 555.16-6.1 553.81-9.55 552.46-13 552.46-17.5L552.46-17.5Q552.46-22 553.81-25.45 555.16-28.9 557.63-31.25 560.11-33.6 563.63-34.8 567.16-36 571.46-36ZM644.45-9.25L644.45-9.25Q644.45-7.1 643.55-5.23 642.65-3.35 640.63-1.98 638.6-0.6 635.38 0.2 632.15 1 627.45 1L627.45 1Q624.8 1 622.28 0.6 619.75 0.2 617.48-0.55 615.2-1.3 613.28-2.38 611.35-3.45 609.95-4.75L609.95-4.75 612.45-7.75Q615.3-5.3 619.1-4.03 622.9-2.75 627.45-2.75L627.45-2.75Q632.5-2.75 634.6-4.15 636.7-5.55 636.7-8L636.7-8Q636.7-9.9 635.05-11.2 633.4-12.5 629.45-13.75L629.45-13.75 619.95-16.75Q615.25-18.25 612.85-20.58 610.45-22.9 610.45-26.5L610.45-26.5Q610.45-28.35 611.33-30.08 612.2-31.8 614.05-33.13 615.9-34.45 618.78-35.23 621.65-36 625.7-36L625.7-36Q628.15-36 630.58-35.6 633-35.2 635.23-34.45 637.45-33.7 639.38-32.63 641.3-31.55 642.7-30.25L642.7-30.25 640.2-27.25Q637.35-29.7 633.8-30.98 630.25-32.25 625.7-32.25L625.7-32.25Q621.95-32.25 620.08-30.95 618.2-29.65 618.2-27.75L618.2-27.75Q618.2-26.7 618.55-25.93 618.9-25.15 619.73-24.48 620.55-23.8 621.9-23.23 623.25-22.65 625.25-22L625.25-22 634.7-19Q639.25-17.55 641.85-15.2 644.45-12.85 644.45-9.25ZM679.95-31.25L656.7-31.25 656.7-19.75 674.95-19.75 674.95-16 656.7-16 656.7-3.75 679.95-3.75 679.95 0 649.45 0 649.45-35 679.95-35 679.95-31.25ZM684.95-35L702.95-35Q706.7-35 709.67-34.18 712.65-33.35 714.7-31.78 716.75-30.2 717.85-27.93 718.95-25.65 718.95-22.75L718.95-22.75Q718.95-18.75 716.95-16 714.95-13.25 711.2-11.8L711.2-11.8 719.45 0 711.2 0 703.85-10.5 702.95-10.5 692.2-10.5 692.2 0 684.95 0 684.95-35ZM702.95-31.25L692.2-31.25 692.2-14.25 702.95-14.25Q706.9-14.25 709.05-16.32 711.2-18.4 711.2-22.75L711.2-22.75Q711.2-27.1 709.05-29.18 706.9-31.25 702.95-31.25L702.95-31.25ZM728.4-35L740.95-4.25 741.45-4.25 754-35 761.45-35 747.2 0 735.2 0 720.95-35 728.4-35ZM772.69-35L772.69 0 765.44 0 765.44-35 772.69-35ZM799.69-2.75L799.69-2.75Q803.09-2.75 806.22-3.93 809.34-5.1 812.19-7.75L812.19-7.75 814.69-4.75Q811.84-2.1 807.79-0.55 803.74 1 799.19 1L799.19 1Q794.49 1 790.72-0.2 786.94-1.4 784.27-3.75 781.59-6.1 780.14-9.55 778.69-13 778.69-17.5L778.69-17.5Q778.69-22 780.12-25.45 781.54-28.9 784.17-31.25 786.79-33.6 790.49-34.8 794.19-36 798.69-36L798.69-36Q803.24-36 807.29-34.45 811.34-32.9 814.19-30.25L814.19-30.25 811.69-27.25Q808.84-29.9 805.72-31.08 802.59-32.25 799.19-32.25L799.19-32.25Q796.49-32.25 794.14-31.38 791.79-30.5 790.09-28.7 788.39-26.9 787.42-24.13 786.44-21.35 786.44-17.5L786.44-17.5Q786.44-13.65 787.42-10.88 788.39-8.1 790.17-6.3 791.94-4.5 794.37-3.63 796.79-2.75 799.69-2.75ZM849.69-31.25L826.44-31.25 826.44-19.75 844.69-19.75 844.69-16 826.44-16 826.44-3.75 849.69-3.75 849.69 0 819.19 0 819.19-35 849.69-35 849.69-31.25ZM887.19-9.25L887.19-9.25Q887.19-7.1 886.29-5.23 885.39-3.35 883.36-1.98 881.34-0.6 878.11 0.2 874.89 1 870.19 1L870.19 1Q867.54 1 865.01 0.6 862.49 0.2 860.21-0.55 857.94-1.3 856.01-2.38 854.09-3.45 852.69-4.75L852.69-4.75 855.19-7.75Q858.04-5.3 861.84-4.03 865.64-2.75 870.19-2.75L870.19-2.75Q875.24-2.75 877.34-4.15 879.44-5.55 879.44-8L879.44-8Q879.44-9.9 877.79-11.2 876.14-12.5 872.19-13.75L872.19-13.75 862.69-16.75Q857.99-18.25 855.59-20.58 853.19-22.9 853.19-26.5L853.19-26.5Q853.19-28.35 854.06-30.08 854.94-31.8 856.79-33.13 858.64-34.45 861.51-35.23 864.39-36 868.44-36L868.44-36Q870.89-36 873.31-35.6 875.74-35.2 877.96-34.45 880.19-33.7 882.11-32.63 884.04-31.55 885.44-30.25L885.44-30.25 882.94-27.25Q880.09-29.7 876.54-30.98 872.99-32.25 868.44-32.25L868.44-32.25Q864.69-32.25 862.81-30.95 860.94-29.65 860.94-27.75L860.94-27.75Q860.94-26.7 861.29-25.93 861.64-25.15 862.46-24.48 863.29-23.8 864.64-23.23 865.99-22.65 867.99-22L867.99-22 877.44-19Q881.99-17.55 884.59-15.2 887.19-12.85 887.19-9.25ZM937.43-35L944.68-35 944.68 0 937.43 0 937.43-15.25 916.93-15.25 916.93 0 909.68 0 909.68-35 916.93-35 916.93-19 937.43-19 937.43-35ZM970.68-32.5L970.68-32.5Q968.13-32.5 965.9-31.6 963.68-30.7 962.03-28.85 960.38-27 959.4-24.18 958.43-21.35 958.43-17.5L958.43-17.5Q958.43-13.65 959.4-10.83 960.38-8 962.03-6.15 963.68-4.3 965.9-3.4 968.13-2.5 970.68-2.5L970.68-2.5Q973.23-2.5 975.45-3.4 977.68-4.3 979.33-6.15 980.98-8 981.95-10.83 982.93-13.65 982.93-17.5L982.93-17.5Q982.93-21.35 981.95-24.18 980.98-27 979.33-28.85 977.68-30.7 975.45-31.6 973.23-32.5 970.68-32.5ZM970.68-36L970.68-36Q975.18-36 978.85-34.8 982.53-33.6 985.15-31.25 987.78-28.9 989.23-25.45 990.68-22 990.68-17.5L990.68-17.5Q990.68-13 989.23-9.55 987.78-6.1 985.15-3.75 982.53-1.4 978.85-0.2 975.18 1 970.68 1L970.68 1Q966.18 1 962.48-0.2 958.78-1.4 956.15-3.75 953.53-6.1 952.1-9.55 950.68-13 950.68-17.5L950.68-17.5Q950.68-22 952.1-25.45 953.53-28.9 956.15-31.25 958.78-33.6 962.48-34.8 966.18-36 970.68-36ZM1007.43-35L1020.43-5 1020.93-5 1033.93-35 1044.68-35 1044.68 0 1037.43 0 1037.43-28 1036.93-28 1024.93 0 1016.43 0 1004.43-28 1003.93-28 1003.93 0 996.68 0 996.68-35 1007.43-35ZM1082.17-31.25L1058.92-31.25 1058.92-19.75 1077.17-19.75 1077.17-16 1058.92-16 1058.92-3.75 1082.17-3.75 1082.17 0 1051.67 0 1051.67-35 1082.17-35 1082.17-31.25Z" opacity="1" transform="matrix(1,0,0,1,0,0)" fill="#000000" class="undefined-text-1" data-fill-palette-color="secondary" id="text-1"></path></svg></g></svg></g></svg></g></svg></g><g transform="matrix(1,0,0,1,136.19183009231529,0)"><svg viewBox="0 0 125.11393981536938 110.57274956483097" height="110.57274956483097" width="125.11393981536938"><g><svg xmlns:x="http://ns.adobe.com/Extensibility/1.0/" xmlns:i="http://ns.adobe.com/AdobeIllustrator/10.0/" xmlns:graph="http://ns.adobe.com/Graphs/1.0/" xmlns="http://www.w3.org/2000/svg" xmlns:xlink="http://www.w3.org/1999/xlink" xmlns:a="http://ns.adobe.com/AdobeSVGViewerExtensions/3.0/" version="1.1" x="8" y="0" viewBox="3.9034054279327393 3.286750078201294 92.1946029663086 93.42720794677734" enable-background="new 0 0 100 100" xml:space="preserve" height="110.57274956483097" width="109.11393981536938" class="icon-icon-0" data-fill-palette-color="accent" id="icon-0"><path d="M58.248 32.491c-0.431 0.392-7.462 6.679-16.153 14.449 1.385 1.687 3.008 3.5 4.927 5.42 2.447 2.438 4.725 4.412 6.784 6.01 8.384-9.378 15.275-17.082 15.629-17.474 0.94-1.034 1.693-0.719 2.101-0.603 6.896 1.952 14.677 0.232 18.228-7.172 3.279-6.841 0.598-12.116-1.588-15.76-0.524-0.885-1.366-0.354-1.586 0.11-0.232 0.47-4.169 8.688-4.169 8.688-1.052 2.201-3.628 3.849-8.782 1.382-5.153-2.472-5.469-5.513-4.413-7.708 0 0 3.677-7.665 4.169-8.687 0.488-1.029-0.258-1.289-0.706-1.228-4.22 0.552-10.035 1.775-13.319 8.626-1.886 3.927-1.772 7.775-0.382 11.154C59.193 30.207 59.43 31.44 58.248 32.491zM26.802 72.582c-2.071-2.074-4.103-4.264-6.071-6.536C13.18 72.798 7.503 77.875 7.503 77.875c-0.292 0.264-0.58 0.553-0.851 0.845C2.676 83.172 3.06 89.995 7.503 93.967c4.444 3.975 11.265 3.589 15.238-0.853 0 0 5.096-5.701 11.917-13.333C31.917 77.465 29.271 75.049 26.802 72.582zM12.339 8.552C4.34 16.687 3.904 26.983 3.904 26.983c1.999 9.987 13.155 28.185 26.734 41.756 13.573 13.582 31.767 24.74 41.761 26.73 0 0 10.298-0.426 18.426-8.433l0.007 0.011 4.792-4.788c0.632-0.631 0.632-1.676 0-2.307l-20.32-20.321c-0.638-0.631-1.677-0.631-2.307 0l-4.79 4.793 0.012 0.018-4.503 5.579c0 0-8.538-1.841-20.527-13.83C31.196 44.203 29.354 35.665 29.354 35.665l5.583-4.512 0.014 0.022 0.161-0.161 0.002-0.006 0 0 4.631-4.623c0.633-0.642 0.633-1.675 0-2.312L19.426 3.763c-0.633-0.635-1.669-0.635-2.3 0l-4.792 4.789H12.339z" fill="#000000" data-fill-palette-color="accent"></path></svg></g></svg></g><g><rect width="59.6587100923153" height="5.225617298985274" y="104.3471322658457" x="261.30576990768463" fill="#000000" data-fill-palette-color="secondary"></rect><rect width="59.6587100923153" height="5.225617298985274" y="104.3471322658457" x="76.53311999999997" fill="#000000" data-fill-palette-color="secondary"></rect></g></svg></g></svg><rect width="395.52" height="222.05656237111407" fill="none" stroke="none" visibility="hidden"></rect></g></svg></g></svg>